# xmcd CD Database Entry
#
# Track frame offsets:
# 150
# 27853
# 46364
# 69122
# 92925
# 109642
# 127234
# 145495
# 166150
# 176218
# 191045
# 211285
# 231530
#
# Disc length: 3385 seconds
#
# Revision: 3
# Processed by: cddbd v1.4PL0 Copyright (c) Steve Scherf et al.
# Submitted via: tcd 2.0b
#
DISCID=c10d370d
DTITLE=Therion - Secret of the Runes
DYEAR=1900
DGENRE=
TTITLE0=Ginnungagap
TTITLE1=Midgard
TTITLE2=Asgard
TTITLE3=Jotunheim
TTITLE4=Schwarzalbenheim
TTITLE5=Liusalfheim
TTITLE6=Muspelheim
TTITLE7=Nifelheim
TTITLE8=Vanaheim
TTITLE9=Helheim
TTITLE10=Secret of the Runes
TTITLE11=Crying days
TTITLE12=Summer Night City
EXTD=
EXTT0=
EXTT1=
EXTT2=
EXTT3=
EXTT4=
EXTT5=
EXTT6=
EXTT7=
EXTT8=
EXTT9=
EXTT10=
EXTT11=
EXTT12=
PLAYORDER=
